<?xml version="1.0" encoding="utf-8"?>
<!-- Generator: Adobe Illustrator 21.1.0, SVG Export Plug-In . SVG Version: 6.00 Build 0)  -->
<svg version="1.1" id="Layer_1" xmlns="http://www.w3.org/2000/svg" xmlns:xlink="http://www.w3.org/1999/xlink" x="0px" y="0px"
	 viewBox="0 0 236 90" style="enable-background:new 0 0 236 90;" xml:space="preserve">
<style type="text/css">
	.st0{fill:none;stroke:#006CA9;stroke-width:2;stroke-miterlimit:10;}
	.st1{fill:#006CA9;}
</style>
<circle class="st0" cx="118" cy="45" r="37.7"/>
<g>
	<path class="st1" d="M139.3,58.8l-8.1-3.5c-0.2-0.1-0.4-0.3-0.6-0.6l5.4,0c0.1,0,2.3,0.2,4.1-0.6c0.7-0.3,1.2-0.9,1.4-1.6
		c0.2-0.7,0.1-1.5-0.4-2.1c-1.6-2.2-5.2-8-5.3-13.9c0-0.1-0.3-10.1-10.2-10.2c-1.4,0-2.8,0.3-4,0.7c-0.3-0.7-0.7-1.4-1.2-2.1
		c-1.7-2-4.5-2.9-8.3-2.9c-3.8,0-6.5,1-8.3,2.9c-2,2.3-1.8,5-1.7,5.4v4.4c-0.5,0.6-0.8,1.4-0.8,2.2v3.3c0,1,0.5,2,1.2,2.6
		c0.8,3,2.4,5.3,2.9,6v2.8c0,0.8-0.4,1.5-1.1,1.9l-7.4,4.1c-2.4,1.3-3.9,3.8-3.9,6.6v3.5h50v-3.1C143,62.3,141.6,59.9,139.3,58.8
		L139.3,58.8z M129.7,66.2h-35v-1.9c0-2.1,1.2-4.1,3-5.1l7.4-4.1c1.2-0.7,2-2,2-3.4v-3.3l-0.2-0.2c0,0-2.1-2.5-2.8-5.9l-0.1-0.3
		l-0.3-0.2c-0.5-0.3-0.8-0.8-0.8-1.4v-3.3c0-0.5,0.2-0.9,0.6-1.2l0.3-0.2v-5.2l0-0.1c0,0-0.3-2.3,1.3-4.2c1.4-1.6,3.7-2.4,7-2.4
		c3.3,0,5.6,0.8,7,2.4c0.7,0.8,1,1.6,1.2,2.4c0,0.1,0,0.1,0,0.2c0,0.1,0,0.1,0,0.2c0,0.1,0,0.1,0,0.2c0,0,0,0.1,0,0.1
		c0,0.1,0,0.2,0,0.3c0,0,0,0,0,0c0,0.1,0,0.2,0,0.3c0,0,0,0,0,0c0,0.1,0,0.1,0,0.2v0c0,0.2,0,0.3,0,0.3l0,5.3l0.3,0.3
		c0.4,0.3,0.6,0.8,0.6,1.2v3.3c0,0.7-0.5,1.4-1.2,1.6l-0.4,0.1l-0.1,0.4c-0.6,1.7-1.4,3.3-2.4,4.8c-0.2,0.4-0.5,0.7-0.7,0.9
		l-0.2,0.2v3.4c0,0.2,0,0.4,0.1,0.6c0,0,0,0.1,0,0.1c0,0.2,0.1,0.3,0.1,0.5c0,0,0,0.1,0,0.1c0.1,0.2,0.1,0.3,0.2,0.5c0,0,0,0,0,0.1
		c0.1,0.2,0.3,0.4,0.4,0.6l0.2,0.2h0c0.3,0.3,0.6,0.5,1,0.7l8,4c2,1,3.2,3,3.2,5.2V66.2z M141.3,66.2h-10v-1.7
		c0-2.9-1.6-5.4-4.2-6.7l-5.7-2.9c0.1-0.3,0.2-0.7,0-1c-0.2-0.6-0.7-1-1.4-1h-1.8c0-0.1-0.1-0.1-0.1-0.2c0-0.1-0.1-0.2-0.1-0.3
		c-0.1-0.2-0.1-0.4-0.1-0.6v-2.8c0.2-0.2,0.4-0.5,0.6-0.8c1-1.5,1.9-3.1,2.5-4.8c1.2-0.5,1.9-1.7,1.9-3v-3.3c0-0.8-0.3-1.6-0.8-2.2
		v-4.4c0-0.2,0.1-0.9-0.1-1.8c1.1-0.4,2.3-0.6,3.6-0.6c8.2,0.1,8.5,8.2,8.5,8.5c0.1,6.3,4,12.4,5.6,14.8c0.1,0.2,0.2,0.5,0.1,0.7
		c0,0.1-0.2,0.4-0.4,0.5c-1.4,0.6-3.3,0.4-3.4,0.4h-5.7c-0.5,0-1,0.3-1.3,0.7c-0.3,0.5-0.3,1-0.1,1.5c0.3,0.5,0.7,1.2,1.5,1.6
		l8.1,3.5c1.7,0.9,2.8,2.6,2.8,4.5V66.2z M141.3,66.2"/>
</g>
<rect y="44" class="st1" width="80.3" height="2"/>
<rect x="155.7" y="44" class="st1" width="80.3" height="2"/>
</svg>
